HIERARCHY
ROOT Hips
{
 OFFSET 0.000000 0.000000 0.000000
 CHANNELS 6 Xposition Yposition Zposition Yrotation Xrotation Zrotation
 JOINT Chest
 {
  OFFSET 0.000000 9.585900 0.002600
  CHANNELS 3 Yrotation Xrotation Zrotation
  JOINT Chest2
  {
   OFFSET 0.000000 9.601200 -0.005300
   CHANNELS 3 Yrotation Xrotation Zrotation
   JOINT Chest3
   {
    OFFSET 0.000000 9.561800 0.000000
    CHANNELS 3 Yrotation Xrotation Zrotation
    JOINT Chest4
    {
     OFFSET 0.000000 9.552100 0.000000
     CHANNELS 3 Yrotation Xrotation Zrotation
     JOINT Neck
     {
      OFFSET 0.000000 14.453000 0.000000
      CHANNELS 3 Yrotation Xrotation Zrotation
      JOINT Head
      {
       OFFSET 0.000000 8.936500 -0.011300
       CHANNELS 3 Yrotation Xrotation Zrotation
       End Site
       {
        OFFSET 0.000000 17.073600 -0.006000
       }
      }
     }
     JOINT RightCollar
     {
      OFFSET -2.921100 9.558500 0.000000
      CHANNELS 3 Yrotation Xrotation Zrotation
      JOINT RightShoulder
      {
       OFFSET -13.519700 0.000000 0.000000
       CHANNELS 3 Yrotation Xrotation Zrotation
       JOINT RightElbow
       {
        OFFSET 0.000000 -29.696600 0.000000
        CHANNELS 3 Yrotation Xrotation Zrotation
        JOINT RightWrist
        {
         OFFSET 0.000000 -24.004700 0.000000
         CHANNELS 3 Yrotation Xrotation Zrotation
         End Site
         {
          OFFSET 0.000000 -17.728500 0.000000
         }
        }
       }
      }
     }
     JOINT LeftCollar
     {
      OFFSET 2.921100 9.558500 0.000000
      CHANNELS 3 Yrotation Xrotation Zrotation
      JOINT LeftShoulder
      {
       OFFSET 13.519700 0.000000 0.000000
       CHANNELS 3 Yrotation Xrotation Zrotation
       JOINT LeftElbow
       {
        OFFSET 0.000000 -29.696600 0.000000
        CHANNELS 3 Yrotation Xrotation Zrotation
        JOINT LeftWrist
        {
         OFFSET 0.000000 -24.004700 0.000000
         CHANNELS 3 Yrotation Xrotation Zrotation
         End Site
         {
          OFFSET 0.000000 -17.728500 0.000000
         }
        }
       }
      }
     }
    }
   }
  }
 }
 JOINT RightHip
 {
  OFFSET -7.771700 -0.012900 -0.001300
  CHANNELS 3 Yrotation Xrotation Zrotation
  JOINT RightKnee
  {
   OFFSET 0.000000 -40.869800 0.001200
   CHANNELS 3 Yrotation Xrotation Zrotation
   JOINT RightAnkle
   {
    OFFSET 0.000000 -39.717900 0.002100
    CHANNELS 3 Yrotation Xrotation Zrotation
    JOINT RightToe
    {
     OFFSET 0.000000 -4.965400 11.033500
     CHANNELS 3 Yrotation Xrotation Zrotation
     End Site
     {
      OFFSET 0.000000 -1.423100 5.872300
     }
    }
   }
  }
 }
 JOINT LeftHip
 {
  OFFSET 7.771700 -0.012900 -0.001300
  CHANNELS 3 Yrotation Xrotation Zrotation
  JOINT LeftKnee
  {
   OFFSET 0.000000 -40.869800 0.001200
   CHANNELS 3 Yrotation Xrotation Zrotation
   JOINT LeftAnkle
   {
    OFFSET 0.000000 -39.717900 0.002100
    CHANNELS 3 Yrotation Xrotation Zrotation
    JOINT LeftToe
    {
     OFFSET 0.000000 -4.965400 11.033500
     CHANNELS 3 Yrotation Xrotation Zrotation
     End Site
     {
      OFFSET 0.000000 -1.423100 5.872300
     }
    }
   }
  }
 }
}
MOTION
Frames: 6
Frame Time: 0.008333
0.000000 85.388000 0.000000 0.000000 -5.767877 0.000000 0.000000 11.653817 0.000000 0.000000 -5.885947 0.000000 0.000000 -0.000000 0.000000 0.000000 -0.000000 0.000000 0.000000 12.528835 0.000000 0.000000 0.711642 0.000000 0.000000 -0.000000 0.000000 0.000000 0.000000 -90.000000 0.000000 -2.309062 0.000000 0.000000 2.309062 0.000000 0.000000 -0.000000 0.000000 0.000000 -0.000000 90.000000 0.000000 -2.309062 0.000000 0.000000 2.309062 0.000000 0.000000 8.520406 0.000000 0.000000 1.905762 0.000000 -0.000000 -4.658285 0.000000 0.000000 -0.000000 0.000000 0.000000 8.520406 0.000000 0.000000 1.905762 0.000000 -0.000000 -4.658285 0.000000 0.000000 -0.000000 0.000000
-24.329556 50.137325 27.678755 159.416588 -16.306053 -1.294709 -3.990836 7.488533 5.264070 -0.200130 0.445598 0.246249 -0.432525 0.691251 0.509596 -3.521485 6.909104 4.232154 -1.600546 22.972082 3.823185 -3.900643 7.126177 7.183060 4.302799 2.207598 -6.522797 -8.007133 -17.755560 -12.359666 -146.290219 -66.146599 172.614502 -0.811975 -6.551707 -30.274848 -15.126951 -7.201253 0.903956 -14.320073 -35.010056 18.697484 175.218171 -60.486835 160.556238 -0.596192 2.838080 19.682088 6.541969 -65.240222 2.860127 -107.548165 78.802616 -111.220257 -7.251898 -12.865341 6.160690 0.238521 0.670804 0.061988 -7.775702 -67.609312 31.325018 123.695431 81.135983 120.128640 -17.202235 -23.829528 1.767798 -0.427799 -0.755524 -0.248027
-24.328114 50.137787 27.681537 159.358633 -16.321650 -1.327549 -3.964745 7.477110 5.338379 -0.230351 0.413824 0.277908 -0.397964 0.717697 0.480453 -3.503043 6.857171 4.304813 -1.495451 23.049352 3.796426 -3.683891 7.205657 7.194295 4.268617 2.365727 -6.503113 -7.977279 -17.563252 -12.269329 -146.077965 -66.577591 172.343816 -0.842102 -6.263977 -30.396495 -15.102312 -7.156610 0.805556 -14.492352 -34.985643 18.766621 175.588220 -60.430143 160.260018 -0.616966 2.837905 19.665853 6.480047 -65.233525 2.935940 -107.493081 78.800721 -111.072523 -7.277075 -12.843683 6.057754 0.322741 0.673565 0.097298 -7.769748 -67.599920 31.368872 123.853901 81.186889 120.341737 -17.202979 -23.850802 1.774050 -0.469467 -0.724283 -0.252579
-24.330389 50.139082 27.682483 159.240939 -16.338364 -1.302670 -3.887981 7.459327 5.373533 -0.228120 0.411305 0.278902 -0.394198 0.713444 0.482178 -3.476361 6.835824 4.331027 -1.357619 23.092728 3.828371 -3.445768 7.285476 7.211300 4.239680 2.507514 -6.443319 -7.954609 -17.349521 -12.174280 -145.722917 -67.009239 171.958677 -0.883723 -5.968285 -30.579780 -15.090789 -7.117415 0.742401 -14.628182 -34.949720 18.840724 175.929005 -60.369067 159.974794 -0.639701 2.840744 19.646844 6.497419 -65.220520 2.881140 -107.571187 78.882494 -111.070675 -7.141890 -12.850120 5.976073 0.265074 0.671984 0.054488 -7.618710 -67.590884 31.311139 123.988543 81.218723 120.549403 -17.234499 -23.867184 1.746625 -0.412661 -0.715882 -0.229229
-24.332907 50.140677 27.685386 159.163215 -16.336313 -1.266373 -3.850024 7.420311 5.391208 -0.225916 0.408476 0.279763 -0.390345 0.708621 0.483815 -3.455777 6.861869 4.305402 -1.176207 23.085051 3.920365 -3.187364 7.361454 7.231016 4.232590 2.609621 -6.336397 -7.935169 -17.108369 -12.078743 -145.267831 -67.430953 171.485339 -0.948397 -5.678577 -30.824705 -15.075173 -7.106047 0.737772 -14.714074 -34.902425 18.892010 176.226337 -60.314896 159.709640 -0.664436 2.843577 19.621477 6.529242 -65.223483 2.809058 -107.618230 78.935180 -111.060096 -7.060453 -12.849400 5.911758 0.242628 0.669174 0.027396 -7.463784 -67.593664 31.210069 123.862831 81.212283 120.467813 -17.280723 -23.879673 1.741519 -0.371897 -0.704354 -0.227570
-24.328824 50.143328 27.690182 159.099963 -16.329621 -1.243394 -3.820939 7.376847 5.423144 -0.223777 0.405513 0.280632 -0.382375 0.715151 0.473344 -3.427085 6.765030 4.400179 -1.053081 23.179423 3.894477 -2.913624 7.429141 7.247099 4.212566 2.835125 -6.323557 -7.912941 -16.835996 -11.993991 -144.734972 -67.825868 170.934591 -1.038717 -5.404567 -31.130477 -14.968347 -6.971405 0.636589 -14.811455 -34.893616 18.872132 176.469924 -60.270675 159.474512 -0.686975 2.846148 19.585713 6.535126 -65.233530 2.773729 -107.652187 78.969717 -111.034819 -7.002959 -12.838512 5.837908 0.225463 0.668452 0.023304 -7.407828 -67.589271 31.198682 123.725831 81.202953 120.353966 -17.327127 -23.881576 1.731198 -0.356617 -0.698195 -0.232108
